<?xml version="1.0" encoding="utf-8"?>
<!-- Generator: Adobe Illustrator 22.1.0, SVG Export Plug-In . SVG Version: 6.00 Build 0)  -->
<svg version="1.1" id="Layer_1" xmlns="http://www.w3.org/2000/svg" xmlns:xlink="http://www.w3.org/1999/xlink" x="0px" y="0px"
	 viewBox="0 0 150 187.5" style="enable-background:new 0 0 150 187.5;" xml:space="preserve">
<style type="text/css">
	.st0{display:none;}
	.st1{display:inline;}
	.st2{font-family:'ArialMT';}
	.st3{font-size:12px;}
</style>
<g>
	<g>
		<g>
			<path d="M64.2,82C47.4,84.9,35,93,35,111.4v4.2h80v-4.2C115,93,102.6,84.9,85.8,82"/>
			<path d="M115,116.1H35c-0.3,0-0.5-0.2-0.5-0.5v-4.2c0-16.4,10-26.5,29.6-29.9c0.3,0,0.5,0.1,0.6,0.4c0,0.3-0.1,0.5-0.4,0.6
				c-19.4,3.3-28.8,12.8-28.8,28.9v3.7h79v-3.7c0-16.1-9.4-25.6-28.8-28.9c-0.3,0-0.5-0.3-0.4-0.6c0-0.3,0.3-0.5,0.6-0.4
				c19.7,3.4,29.6,13.4,29.6,29.9v4.2C115.5,115.9,115.3,116.1,115,116.1z"/>
		</g>
		<g>
			<path d="M97.7,57.1c0,12.5-10.1,29.2-22.7,29.2S52.3,69.6,52.3,57.1c0-12.5,10.1-22.7,22.7-22.7S97.7,44.6,97.7,57.1z"/>
			<path d="M75,86.8c-12.5,0-23.2-16.3-23.2-29.7c0-12.8,10.4-23.2,23.2-23.2s23.2,10.4,23.2,23.2C98.2,70.4,87.5,86.8,75,86.8z
				 M75,34.9c-12.2,0-22.2,9.9-22.2,22.2C52.8,70,63.1,85.8,75,85.8S97.2,70,97.2,57.1C97.2,44.9,87.2,34.9,75,34.9z"/>
		</g>
	</g>
</g>
<g class="st0">
	<text transform="matrix(1 0 0 1 59.1479 13.5132)" class="st1 st2 st3">Profile</text>
</g>
</svg>
